<svg width="1200" height="306" viewBox="0 0 1200 306" fill="none" xmlns="http://www.w3.org/2000/svg">
<g clip-path="url(#clip0_205_2)">
<path fill-rule="evenodd" clip-rule="evenodd" d="M842.534 179.033L896.565 231.939H850.588L809.251 191.479V231.939H773.59V62.2036H809.251V166.019L845.356 130.69H891.745L842.534 179.033ZM628.008 109.574C639.708 109.574 649.179 100.315 649.179 88.8521C649.179 77.4102 639.708 68.1304 628.008 68.1304C616.318 68.1304 606.838 77.4102 606.838 88.8521C606.838 100.315 616.318 109.574 628.008 109.574ZM645.341 231.949H609.659V130.699H645.341V231.949ZM548.167 231.949L486.865 162.853V231.949H448.974V69.1135H486.865V135.624L543.95 69.1135H589.916L522.959 146.279L600.39 231.939H548.167V231.949ZM727.624 206.283C714.106 206.283 702.998 195.224 702.998 181.206C702.998 167.395 714.106 156.347 727.624 156.357C738.299 156.357 744.958 161.085 744.958 161.085L757.049 137.228C757.049 137.228 745.37 127.752 722.371 127.752C692.312 127.752 665.107 151.826 665.107 181.631C665.107 211.229 692.534 234.93 722.371 234.93C745.37 234.93 757.049 225.815 757.049 225.815L744.958 201.556C744.958 201.556 738.299 206.283 727.624 206.283ZM973.795 158.517L985.484 135.623C985.484 135.623 970.761 127.74 950.806 127.74C923.59 127.74 905.633 139.575 905.633 160.286C905.633 175.483 916.107 182.591 926.645 187.918C930.447 189.857 934.208 191.226 937.551 192.443C944.471 194.962 949.602 196.83 949.602 201.74C949.602 208.454 943.556 209.044 938.535 209.044C927.036 209.044 912.915 197.405 912.915 197.405L898.382 221.272C898.382 221.272 913.317 234.928 938.303 234.928C959.473 234.928 987.313 230.158 987.313 200.364C987.313 179.663 969.567 172.142 955.848 167.993C954.903 167.698 953.976 167.416 953.074 167.142C945.515 164.843 939.719 163.08 939.719 158.32C939.719 153.582 942.932 152.196 950.806 152.196C961.693 152.196 973.795 158.517 973.795 158.517ZM1011.31 93.0019H1046.97V130.7H1068.74V157.35H1046.97V189.524C1046.97 198.979 1049.39 203.531 1055.03 203.531C1059.7 203.531 1063.91 200.366 1063.91 200.366L1072.8 228.598C1072.8 228.598 1061.28 234.929 1046.58 234.929C1018.16 234.929 1011.31 214.166 1011.31 196.238V157.35H996.403V130.7H1011.31V93.0019ZM1130.44 127.74C1144.35 127.74 1155.85 132.271 1164.34 140.361V130.698H1200V231.948H1164.72V220.475H1164.34C1156.67 228.793 1144.56 234.917 1130.44 234.917C1100.22 234.917 1079.04 211.009 1079.04 181.411C1079.04 151.813 1100.22 127.74 1130.44 127.74ZM1141.16 205.112C1155.06 205.112 1165.13 195.232 1165.13 181.421C1165.13 167.393 1154.42 157.534 1141.16 157.534C1127.64 157.534 1116.94 167.393 1116.94 181.421C1116.94 195.232 1126.6 205.112 1141.16 205.112Z" fill="#2A363D"/>
<path d="M0 152.637H152.727C152.727 111.184 138.946 73.2359 110.641 45.1586C82.3158 17.0918 43.2028 0.00126648 0 0.00126648V152.637Z" fill="#EF3F61"/>
<path d="M152.727 0H305.455C305.455 41.4537 291.673 79.4014 263.369 107.479C235.043 135.546 195.93 152.636 152.727 152.636V0Z" fill="#5C94FE"/>
<path d="M152.727 152.636H0C0 194.09 13.7815 232.037 42.086 260.115C70.4114 288.181 109.524 305.272 152.727 305.272V152.636Z" fill="#FEC149"/>
<path d="M305.455 152.636H152.727C152.727 194.09 166.509 232.037 194.813 260.115C223.139 288.181 262.252 305.272 305.455 305.272V152.636Z" fill="#4ED687"/>
</g>
<defs>
<clipPath id="clip0_205_2">
<rect width="1200" height="305.272" fill="white"/>
</clipPath>
</defs>
</svg>
